PathFileType	4	(X/Y/Z)	 s09c0103.trc
DataRate	CameraRate	NumFrames	NumMarkers	Units	OrigDataRate	OrigDataStartFrame	OrigNumFrames
200	200	6	50	mm	200	1501	2000
Frame#	Time	racr			lacr			c7			jug			rlel			rdr			llel			ldr			s2			lic			ric			lasi			rasi			rpsi			lpsi			rgt			lgt			rth1			rth2			rth3			rth4			rlfc			rmfc			rsh1			rsh2			rsh3			rsh4			rlmal			rmmal			rcal			rtoe			rmt5			lth1			lth2			lth4			lth3			llfc			lmfc			llmal			lmmal			lcal			lmt5			lsh1			lsh2			lsh3			lsh4			ltoe			SBIKE			LBIKE			RBIKE			
		X1	Y1	Z1	X2	Y2	Z2	X3	Y3	Z3	X4	Y4	Z4	X5	Y5	Z5	X6	Y6	Z6	X7	Y7	Z7	X8	Y8	Z8	X9	Y9	Z9	X10	Y10	Z10	X11	Y11	Z11	X12	Y12	Z12	X13	Y13	Z13	X14	Y14	Z14	X15	Y15	Z15	X16	Y16	Z16	X17	Y17	Z17	X18	Y18	Z18	X19	Y19	Z19	X20	Y20	Z20	X21	Y21	Z21	X22	Y22	Z22	X23	Y23	Z23	X24	Y24	Z24	X25	Y25	Z25	X26	Y26	Z26	X27	Y27	Z27	X28	Y28	Z28	X29	Y29	Z29	X30	Y30	Z30	X31	Y31	Z31	X32	Y32	Z32	X33	Y33	Z33	X34	Y34	Z34	X35	Y35	Z35	X36	Y36	Z36	X37	Y37	Z37	X38	Y38	Z38	X39	Y39	Z39	X40	Y40	Z40	X41	Y41	Z41	X42	Y42	Z42	X43	Y43	Z43	X44	Y44	Z44	X45	Y45	Z45	X46	Y46	Z46	X47	Y47	Z47	X48	Y48	Z48	X49	Y49	Z49	X50	Y50	Z50	
1501	7.5050	464.256340	1244.688404	-56.456663	553.001539	1256.289177	-356.199702	486.907040	1295.735557	-203.397640	452.024638	1160.044467	-227.059071	472.217960	1000.470538	14.187054	690.996089	883.287384	-42.827659	512.484295	1021.175534	-506.125304	698.987831	872.606305	-424.999895	3.447022	1125.149949	-282.841182	145.235124	1115.574449	-423.119746	135.337107	1153.127476	-130.060644	185.015544	1065.349936	-393.144684	184.615807	1109.729069	-146.083255	23.412746	1164.043727	-225.327223	37.177089	1156.498856	-338.480529	140.783372	1051.430976	-72.407688	105.641448	967.278895	-445.321752	266.495716	1010.782727	-90.305101	352.969239	1006.775313	-105.403573	426.370905	957.854928	-102.362309	359.991237	1027.645059	-135.228027	510.729197	882.997996	-131.233495	489.307021	854.294696	-230.740348	443.110454	805.977307	-95.874726	413.759430	721.185646	-99.817718	347.929834	663.871235	-90.397306	435.291919	706.335599	-129.977291	288.982401	575.063111	-79.957042	287.075572	583.571558	-157.827299	200.107192	558.505753	-111.042950	454.747213	485.655062	-132.725856	375.738967	489.687791	-62.974217	175.373378	847.085093	-441.158449	234.624600	786.594134	-432.777109	268.043907	803.954039	-427.572485	256.443613	700.269344	-416.231030	289.151638	610.852033	-395.541467	303.259551	597.605824	-298.306170	147.844862	274.561389	-407.142816	171.470970	275.676975	-338.179976	77.970835	258.610061	-368.519959	223.082565	163.335526	-429.629855	251.009587	521.135285	-419.237078	240.335882	435.650310	-409.824963	187.803588	364.318996	-411.702394	264.125512	428.909463	-379.092215	316.081953	149.326033	-362.645234	-65.309254	851.630134	-240.234506	20.882946	84.750889	-442.268562	21.064120	84.188536	-43.896840	
1502	7.5100	464.717819	1244.895154	-56.550939	552.404213	1255.928708	-356.347684	486.873664	1295.897627	-203.776741	451.829017	1160.217635	-227.233137	472.225973	1000.906298	14.364916	690.715796	883.478249	-42.991475	510.243022	1020.454882	-505.979546	698.817974	872.527979	-425.149558	3.318482	1126.619670	-281.689834	144.311827	1116.670855	-422.306957	135.236094	1154.536851	-129.481466	184.325392	1066.370547	-392.479199	184.483035	1110.919736	-145.434416	23.389489	1165.635000	-224.399517	36.924286	1157.551585	-337.602382	140.247055	1052.698365	-71.729681	105.122925	968.535431	-444.344904	266.179302	1009.520307	-89.306339	352.696387	1004.576935	-104.298353	425.525116	955.002192	-101.215226	360.075931	1025.524685	-134.209404	508.082553	879.040272	-130.747371	487.769365	850.892289	-229.674596	443.477219	800.808191	-94.774463	415.711016	715.477750	-99.012853	350.969179	656.825866	-89.611279	437.199420	701.215389	-129.471244	294.354173	566.179527	-80.441479	291.661494	575.709496	-157.469634	205.246093	546.739433	-111.022599	462.924914	485.086951	-132.630117	383.891368	485.601352	-62.635701	176.510139	848.335654	-439.641954	236.471145	788.557750	-431.456858	269.762704	806.278806	-426.852007	259.482635	702.560438	-414.593290	292.678999	613.158228	-394.500895	306.492855	600.204101	-296.754409	141.678615	281.019353	-406.767791	165.440470	281.372308	-337.621546	71.501982	266.541738	-368.153333	214.166429	167.755584	-429.313814	252.195463	524.495813	-418.294287	238.959561	439.401344	-409.015315	184.317431	369.710523	-411.090121	262.382969	432.033753	-378.273377	306.651952	151.871024	-362.599485	-65.295603	851.645758	-240.155041	20.901535	84.774390	-442.252909	21.085142	84.187860	-43.873539	
1503	7.5150	465.252826	1245.283917	-56.780386	551.712835	1255.506996	-356.775463	486.919740	1295.990735	-204.399417	451.608877	1160.309892	-227.419314	472.322220	1001.354419	14.343850	690.511783	883.724494	-43.235632	508.941599	1019.427958	-505.456445	698.517935	872.475639	-425.262884	2.982756	1128.377753	-279.875206	143.273223	1117.707725	-421.358313	135.124699	1155.682959	-128.859021	183.589201	1067.269458	-391.744515	184.365635	1111.803070	-144.707949	23.462496	1167.343377	-223.269878	36.569957	1158.648286	-336.466386	139.667551	1053.400482	-70.980171	104.668170	969.764910	-443.340256	266.022346	1007.564602	-88.046888	352.598818	1001.869700	-102.753739	424.659591	951.313418	-99.895483	359.966403	1022.769520	-132.152158	506.367228	874.650921	-129.711981	486.213233	846.129621	-228.006561	443.564024	794.690668	-93.414625	417.393858	708.748580	-98.005092	353.805327	649.002965	-88.642378	438.941011	695.223472	-128.739703	299.310658	557.157397	-79.979244	296.023931	567.067302	-157.026580	210.241260	534.263113	-111.132943	470.661245	483.728193	-132.648837	391.741410	480.778053	-62.355244	177.930068	849.715050	-438.115289	238.652792	790.642782	-430.007757	271.844673	809.010827	-425.827316	262.958932	705.105365	-413.167526	296.624433	615.700303	-393.419031	309.317064	603.246959	-295.235379	135.853101	287.950927	-406.505512	159.609943	287.644560	-337.090907	65.363754	275.265770	-367.755217	203.664822	171.575562	-427.652246	253.765201	528.162060	-417.421177	238.041634	443.534561	-408.360324	181.152725	375.405710	-410.618823	260.842543	435.307583	-377.204993	297.693621	154.434008	-361.899810	-65.277992	851.665688	-240.067503	20.884071	84.820139	-442.225192	21.092155	84.201009	-43.855999	
1504	7.5200	465.672092	1245.253522	-57.789359	550.946078	1254.911700	-357.492419	487.020695	1296.337193	-205.211437	450.410664	1161.070704	-228.608459	472.561634	1001.889095	14.150571	690.464028	883.744638	-43.594134	507.491157	1018.187610	-504.932416	698.250934	872.459465	-425.363277	2.824442	1129.504060	-278.610478	142.245507	1118.684355	-420.296082	135.271552	1156.685546	-128.333268	182.873683	1068.091424	-390.973533	184.181533	1112.585384	-143.965711	23.319838	1168.254476	-221.962226	36.266069	1159.929103	-334.685669	139.100381	1053.538400	-70.323751	104.588980	971.082277	-442.642608	265.736445	1004.899926	-86.661115	351.970436	998.539313	-100.680410	423.969163	946.708783	-98.754042	360.011259	1019.231396	-130.049194	502.199312	869.360679	-126.083723	484.435452	841.045085	-226.471935	443.407658	787.704267	-91.644372	418.836842	701.416083	-96.830371	356.427770	640.249232	-87.683795	440.331950	688.177114	-127.729736	304.081576	547.351135	-79.543035	300.633907	557.455268	-156.917426	215.374445	521.138868	-111.233336	477.921830	481.686135	-132.539112	399.426956	475.163487	-62.159535	179.651366	851.298898	-436.759113	241.258957	793.152519	-428.583005	274.143750	812.015869	-424.478135	266.808274	708.023823	-412.055499	301.079053	618.337396	-392.410752	312.608613	606.192244	-294.185660	130.356901	295.259981	-406.320027	154.146081	294.372287	-336.635646	59.550474	284.250498	-367.426309	195.253867	177.253357	-427.335249	255.639566	531.979757	-416.671597	237.294425	447.810019	-407.674118	178.359918	381.566508	-410.182286	259.736432	438.837262	-376.147858	288.959049	157.687623	-361.515001	-65.245252	851.697319	-239.980762	20.870940	84.800820	-442.197327	21.084461	84.191165	-43.864029	
1505	7.5250	466.315946	1246.011475	-58.136352	550.072122	1254.381459	-358.512375	487.161666	1296.604876	-206.374762	449.985612	1161.375106	-229.052137	472.915557	1002.583958	13.828204	690.455911	883.883949	-43.826056	505.857485	1016.873084	-504.519885	697.962740	872.468017	-425.467329	2.660526	1130.361744	-277.115532	141.149338	1119.476303	-419.147078	135.236844	1157.451354	-127.278477	182.221012	1068.731357	-390.103532	184.096729	1113.077605	-142.837940	23.827347	1169.105277	-220.789589	35.910987	1160.602122	-333.650206	138.496486	1053.114868	-69.526072	104.360074	972.239142	-441.510415	265.475905	1001.530932	-84.872205	351.786153	994.070588	-98.907209	422.214975	941.238820	-95.970845	360.161031	1014.961046	-127.942393	502.646850	862.799340	-126.694351	483.432365	834.850571	-225.655715	442.913199	779.955234	-89.836323	420.036981	693.016063	-95.698253	358.803343	630.884084	-86.750736	441.590220	680.864043	-126.860003	308.678943	536.802952	-79.208412	304.938232	547.355120	-156.584005	220.529579	507.303409	-111.290044	484.683515	478.828163	-132.401687	406.625554	468.953594	-61.884016	181.717979	853.127942	-435.534553	244.189644	796.120197	-427.127092	276.679069	815.361217	-422.695251	270.895237	711.118486	-411.114672	305.853831	621.072854	-391.435749	316.032110	609.238752	-293.336194	125.200144	302.897293	-405.956727	149.191518	301.425682	-336.297089	54.120587	293.588152	-367.193671	189.150848	185.111526	-428.812441	257.680652	535.978094	-416.017784	236.802406	452.447381	-407.096079	175.838228	388.028806	-409.799771	258.669160	442.762644	-375.365507	280.516709	161.362333	-361.364770	-65.189456	851.701080	-239.981778	20.878938	84.861758	-442.211341	21.076970	84.186780	-43.860705	
1506	7.5300	467.287424	1247.240984	-58.108979	549.153780	1253.787337	-359.954332	487.368507	1296.919112	-207.567359	449.858108	1161.583083	-228.996723	473.376287	1003.385446	13.416350	690.505985	884.144245	-43.874300	504.148056	1015.376038	-504.086749	697.662845	872.501625	-425.599998	3.032523	1130.454320	-275.777430	140.072985	1120.147046	-417.931873	135.151794	1157.897425	-126.203062	181.581056	1069.437464	-389.136595	183.960918	1113.418153	-141.454164	24.084390	1169.724156	-219.449675	34.555996	1163.058045	-328.999421	137.943607	1052.036296	-68.520392	104.289018	973.365777	-440.568790	265.126956	997.557390	-82.698547	351.524612	988.705187	-96.956801	421.348248	934.308502	-94.695158	360.208001	1010.052080	-125.347166	500.605254	855.831798	-125.090084	481.340246	827.746638	-223.273549	442.135912	771.523102	-88.048231	420.940359	684.271444	-94.560916	360.910911	620.790186	-85.894522	442.580126	672.749319	-125.759840	313.252714	525.600048	-79.022251	308.897769	536.725926	-156.343084	225.731167	492.898576	-111.226703	490.648402	475.235272	-132.485203	413.263225	462.081484	-61.558445	184.082266	855.240551	-434.472401	247.347693	799.233782	-425.561990	279.404827	818.925291	-420.567241	275.302261	714.517845	-410.204445	310.788756	624.042508	-390.625523	319.479779	612.259641	-292.642491	120.421359	311.062665	-405.874574	144.452529	309.019813	-336.027888	49.107671	303.391001	-366.908463	181.584500	191.862842	-428.688441	259.907593	540.208169	-415.439281	236.501295	457.315733	-406.686727	173.522513	394.767444	-409.502070	257.842965	447.002990	-374.690286	272.331918	165.923614	-361.162305	-65.173556	851.708997	-239.645033	20.871819	84.888911	-442.213604	21.054866	84.162555	-43.862719	
